<svg width="48" height="47" viewBox="0 0 48 47" fill="none" xmlns="http://www.w3.org/2000/svg">
<g clip-path="url(#clip0_36_67)">
<path d="M46.5747 21.5428L25.849 1.16901C24.6563 -0.00457721 22.7203 -0.00457721 21.5261 1.16901L17.2224 5.39994L22.6818 10.7671C23.9506 10.3457 25.4053 10.6283 26.4167 11.6227C27.4329 12.6232 27.7183 14.0656 27.2792 15.317L32.5408 20.4896C33.8137 20.0585 35.2824 20.3375 36.2991 21.3385C37.72 22.7349 37.72 24.9981 36.2991 26.3954C34.8778 27.7927 32.5756 27.7927 31.1538 26.3954C30.085 25.3437 29.8209 23.8004 30.3621 22.506L25.4553 17.6821L25.4547 30.3765C25.8011 30.5454 26.1282 30.7702 26.4167 31.0529C27.8376 32.4492 27.8376 34.7124 26.4167 36.1107C24.9954 37.5076 22.6922 37.5076 21.2729 36.1107C19.8521 34.7124 19.8521 32.4492 21.2729 31.0529C21.624 30.7083 22.0302 30.4476 22.4636 30.2725V17.4599C22.0302 17.2858 21.6245 17.0267 21.2729 16.6795C20.1964 15.6227 19.9375 14.0697 20.4891 12.7702L15.1078 7.4788L0.896689 21.4486C-0.297594 22.6232 -0.297594 24.5265 0.896689 25.7001L21.6224 46.0744C22.8157 47.248 24.7511 47.248 25.9459 46.0744L46.5747 25.7948C47.7685 24.6207 47.7685 22.7164 46.5747 21.5428Z" fill="#DE4C36"/>
</g>
<defs>
<clipPath id="clip0_36_67">
<rect width="47.4691" height="46.6667" fill="white" transform="translate(0 0.288818)"/>
</clipPath>
</defs>
</svg>
