<svg xmlns="http://www.w3.org/2000/svg" xmlns:xlink="http://www.w3.org/1999/xlink" width="50" zoomAndPan="magnify" viewBox="0 0 37.5 37.499999" height="50" preserveAspectRatio="xMidYMid meet" version="1.0"><defs><clipPath id="dbbc75e08e"><path d="M 2.601562 0.25 L 34.40625 0.25 L 34.40625 36.773438 L 2.601562 36.773438 Z M 2.601562 0.25 " clip-rule="nonzero"/></clipPath><clipPath id="b9b057e6ff"><path d="M 19.78125 0.746094 L 33.125 8.507812 C 33.917969 8.96875 34.40625 9.816406 34.40625 10.730469 L 34.40625 26.273438 C 34.40625 27.191406 33.917969 28.039062 33.125 28.5 L 19.78125 36.261719 C 18.992188 36.722656 18.015625 36.722656 17.222656 36.261719 L 3.882812 28.5 C 3.089844 28.039062 2.601562 27.191406 2.601562 26.273438 L 2.601562 10.730469 C 2.601562 9.816406 3.089844 8.96875 3.882812 8.507812 L 17.222656 0.746094 C 18.015625 0.285156 18.992188 0.285156 19.78125 0.746094 Z M 19.78125 0.746094 " clip-rule="nonzero"/></clipPath><clipPath id="6ac1b599ac"><path d="M 2.601562 0 L 34.40625 0 L 34.40625 37 L 2.601562 37 Z M 2.601562 0 " clip-rule="nonzero"/></clipPath><clipPath id="510030e590"><path d="M 19.78125 0.746094 L 33.125 8.507812 C 33.917969 8.96875 34.40625 9.816406 34.40625 10.730469 L 34.40625 26.273438 C 34.40625 27.191406 33.917969 28.039062 33.125 28.5 L 19.78125 36.261719 C 18.992188 36.722656 18.015625 36.722656 17.222656 36.261719 L 3.882812 28.5 C 3.089844 28.039062 2.601562 27.191406 2.601562 26.273438 L 2.601562 10.730469 C 2.601562 9.816406 3.089844 8.96875 3.882812 8.507812 L 17.222656 0.746094 C 18.015625 0.285156 18.992188 0.285156 19.78125 0.746094 Z M 19.78125 0.746094 " clip-rule="nonzero"/></clipPath></defs><g clip-path="url(#dbbc75e08e)"><g clip-path="url(#b9b057e6ff)"><path fill="#00d69f" d="M 2.601562 0 L 34.40625 0 L 34.40625 37.019531 L 2.601562 37.019531 Z M 2.601562 0 " fill-opacity="1" fill-rule="nonzero"/></g></g><g clip-path="url(#6ac1b599ac)"><g clip-path="url(#510030e590)"><path stroke-linecap="butt" transform="matrix(0.740132, 0, 0, 0.740132, 2.602025, -0.000000000000005259)" fill="none" stroke-linejoin="miter" d="M 23.211043 1.008056 L 41.239933 11.495001 C 42.311322 12.117779 42.971044 13.263056 42.971044 14.498057 L 42.971044 35.498336 C 42.971044 36.738614 42.311322 37.883891 41.239933 38.506669 L 23.211043 48.993614 C 22.144932 49.616392 20.825487 49.616392 19.754098 48.993614 L 1.730486 38.506669 C 0.659097 37.883891 -0.000625427 36.738614 -0.000625427 35.498336 L -0.000625427 14.498057 C -0.000625427 13.263056 0.659097 12.117779 1.730486 11.495001 L 19.754098 1.008056 C 20.825487 0.385278 22.144932 0.385278 23.211043 1.008056 Z M 23.211043 1.008056 " stroke="#00d69f" stroke-width="2" stroke-opacity="1" stroke-miterlimit="4"/></g></g></svg>