<svg width="48" height="47" viewBox="0 0 48 47" fill="none" xmlns="http://www.w3.org/2000/svg">
<g clip-path="url(#clip0_36_80)">
<path d="M0 0H47.4691V46.6667H0V0Z" fill="#F0DB4F"/>
<path d="M43.5839 35.5367C43.2365 33.4074 41.8241 31.6197 37.6412 29.9518C36.1883 29.2953 34.5684 28.8251 34.0856 27.7427C33.9141 27.1128 33.8915 26.7579 33.9998 26.3764C34.3112 25.1387 35.8138 24.7528 37.005 25.1077C37.7721 25.3605 38.4986 25.9417 38.9363 26.8688C40.9848 25.5646 40.9803 25.5735 42.4107 24.6774C41.8873 23.879 41.6075 23.5107 41.2646 23.1692C40.0327 21.8162 38.3542 21.1198 35.6694 21.173C35.2046 21.2307 34.7354 21.2927 34.2706 21.3504C32.9305 21.6831 31.6535 22.3752 30.9044 23.3023C28.6573 25.8086 29.2981 30.1958 32.0325 32.0013C34.7263 33.9886 38.6836 34.4411 39.189 36.2998C39.6808 38.5754 37.4879 39.3117 35.3084 39.0501C33.702 38.7218 32.8086 37.9189 31.843 36.4594C30.0652 37.4709 30.0652 37.4709 28.2377 38.5044C28.6709 39.436 29.1266 39.8574 29.8531 40.6648C33.2915 44.0938 41.8963 43.9252 43.4396 38.7351C43.5027 38.5576 43.9179 37.3688 43.5839 35.5367V35.5367ZM25.8056 21.448H21.3655C21.3655 25.2186 21.3475 28.9626 21.3475 32.7332C21.3475 35.133 21.4738 37.3333 21.0767 38.0076C20.427 39.3339 18.7439 39.1698 17.9768 38.9125C17.1962 38.5354 16.7991 37.9986 16.3389 37.2401C16.2125 37.0228 16.1178 36.8542 16.0861 36.8409C14.8814 37.564 13.6811 38.2914 12.4763 39.0145C13.0765 40.2256 13.9609 41.2769 15.0934 41.96C16.7855 42.9581 19.0597 43.2642 21.4377 42.7274C22.9854 42.2838 24.321 41.3656 25.0204 39.9683C26.0312 38.1362 25.8146 35.9182 25.8056 33.4651C25.8281 29.4638 25.8056 25.4626 25.8056 21.448Z" fill="#323330"/>
</g>
<defs>
<clipPath id="clip0_36_80">
<rect width="47.4691" height="46.6667" fill="white"/>
</clipPath>
</defs>
</svg>
