<svg xmlns="http://www.w3.org/2000/svg" xmlns:xlink="http://www.w3.org/1999/xlink" width="100" zoomAndPan="magnify" viewBox="0 0 75 74.999997" height="100" preserveAspectRatio="xMidYMid meet" version="1.0"><defs><g/><clipPath id="e22784fdfe"><path d="M 5.273438 0 L 69.726562 0 L 69.726562 75 L 5.273438 75 Z M 5.273438 0 " clip-rule="nonzero"/></clipPath><clipPath id="c272517c6a"><path d="M 39.445312 1.132812 L 67.78125 17.617188 C 68.984375 18.320312 69.726562 19.605469 69.726562 21 L 69.726562 54 C 69.726562 55.394531 68.984375 56.679688 67.78125 57.382812 L 39.445312 73.867188 C 38.242188 74.566406 36.757812 74.566406 35.554688 73.867188 L 7.21875 57.382812 C 6.015625 56.679688 5.273438 55.394531 5.273438 54 L 5.273438 21 C 5.273438 19.605469 6.015625 18.320312 7.21875 17.617188 L 35.554688 1.132812 C 36.757812 0.433594 38.242188 0.433594 39.445312 1.132812 Z M 39.445312 1.132812 " clip-rule="nonzero"/></clipPath></defs><g clip-path="url(#e22784fdfe)"><g clip-path="url(#c272517c6a)"><path stroke-linecap="butt" transform="matrix(0.75, 0, 0, 0.75, 5.273439, -0.000001)" fill="none" stroke-linejoin="miter" d="M 45.562502 1.510418 L 83.343755 23.489587 C 84.947922 24.427087 85.937506 26.140628 85.937506 28.000004 L 85.937506 72.000007 C 85.937506 73.859382 84.947922 75.572924 83.343755 76.510424 L 45.562502 98.489593 C 43.958336 99.421884 41.979169 99.421884 40.375002 98.489593 L 2.593749 76.510424 C 0.989582 75.572924 -0.00000134578 73.859382 -0.00000134578 72.000007 L -0.00000134578 28.000004 C -0.00000134578 26.140628 0.989582 24.427087 2.593749 23.489587 L 40.375002 1.510418 C 41.979169 0.578126 43.958336 0.578126 45.562502 1.510418 Z M 45.562502 1.510418 " stroke="#00d69f" stroke-width="4" stroke-opacity="1" stroke-miterlimit="4"/></g></g><g fill="#00d69f" fill-opacity="1"><g transform="translate(14.805456, 47.312054)"><g><path d="M 4.078125 0 C 3.828125 0 3.613281 -0.0664062 3.4375 -0.203125 C 3.269531 -0.335938 3.128906 -0.507812 3.015625 -0.71875 C 2.910156 -0.9375 2.832031 -1.175781 2.78125 -1.4375 C 2.738281 -1.695312 2.71875 -1.941406 2.71875 -2.171875 L 2.71875 -18.5 L 6.078125 -18.5 L 6.078125 -2.40625 C 6.078125 -2.019531 6.164062 -1.640625 6.34375 -1.265625 C 6.53125 -0.898438 6.816406 -0.71875 7.203125 -0.71875 L 18.234375 -0.71875 L 18.234375 0 Z M 4.078125 0 "/></g></g></g><g fill="#00d69f" fill-opacity="1"><g transform="translate(38.250225, 47.312054)"><g><path d="M 19.453125 -0.515625 C 19.453125 -0.191406 19.394531 0.0351562 19.28125 0.171875 C 19.164062 0.304688 19.019531 0.375 18.84375 0.375 C 18.570312 0.375 18.269531 0.269531 17.9375 0.0625 C 17.613281 -0.132812 17.367188 -0.328125 17.203125 -0.515625 L 3.765625 -14.34375 C 3.679688 -14.414062 3.613281 -14.453125 3.5625 -14.453125 C 3.457031 -14.453125 3.40625 -14.375 3.40625 -14.21875 L 3.40625 0 L 2.6875 0 L 2.6875 -18.15625 C 2.6875 -18.476562 2.765625 -18.710938 2.921875 -18.859375 C 3.078125 -19.003906 3.269531 -19.078125 3.5 -19.078125 C 3.9375 -19.078125 4.359375 -18.875 4.765625 -18.46875 L 18.234375 -4.6875 C 18.367188 -4.550781 18.476562 -4.484375 18.5625 -4.484375 C 18.613281 -4.484375 18.65625 -4.515625 18.6875 -4.578125 C 18.71875 -4.648438 18.734375 -4.710938 18.734375 -4.765625 L 18.734375 -18.5 L 19.453125 -18.5 Z M 19.453125 -0.515625 "/></g></g></g></svg>