<svg xmlns="http://www.w3.org/2000/svg" xmlns:xlink="http://www.w3.org/1999/xlink" width="500" zoomAndPan="magnify" viewBox="0 0 375 374.999991" height="500" preserveAspectRatio="xMidYMid meet" version="1.0"><defs><g/><clipPath id="b59da2e7d7"><path d="M 26.367188 3 L 348.867188 3 L 348.867188 372 L 26.367188 372 Z M 26.367188 3 " clip-rule="nonzero"/></clipPath><clipPath id="59a7e3e76f"><path d="M 197.347656 5.65625 L 339.136719 88.09375 C 345.160156 91.59375 348.867188 98.035156 348.867188 105 L 348.867188 270 C 348.867188 276.964844 345.160156 283.40625 339.136719 286.90625 L 197.347656 369.34375 C 191.332031 372.839844 183.902344 372.839844 177.886719 369.34375 L 36.097656 286.90625 C 30.074219 283.40625 26.367188 276.964844 26.367188 270 L 26.367188 105 C 26.367188 98.035156 30.074219 91.59375 36.097656 88.09375 L 177.886719 5.65625 C 183.902344 2.160156 191.332031 2.160156 197.347656 5.65625 " clip-rule="nonzero"/></clipPath></defs><g clip-path="url(#b59da2e7d7)"><g clip-path="url(#59a7e3e76f)"><path stroke-linecap="butt" transform="matrix(0.750545, 0, 0, 0.75, 26.36719, 0)" fill="none" stroke-linejoin="miter" d="M 227.808286 7.541667 L 416.722984 117.458334 C 424.748398 122.125 429.687515 130.713542 429.687515 140 L 429.687515 360.000001 C 429.687515 369.286459 424.748398 377.875001 416.722984 382.541667 L 227.808286 492.458334 C 219.793281 497.119792 209.89423 497.119792 201.879225 492.458334 L 12.964527 382.541667 C 4.939113 377.875001 -0.00000360878 369.286459 -0.00000360878 360.000001 L -0.00000360878 140 C -0.00000360878 130.713542 4.939113 122.125 12.964527 117.458334 L 201.879225 7.541667 C 209.89423 2.880208 219.793281 2.880208 227.808286 7.541667 " stroke="#00d69f" stroke-width="16" stroke-opacity="1" stroke-miterlimit="4"/></g></g><g fill="#00d69f" fill-opacity="1"><g transform="translate(74.027277, 236.560287)"><g><path d="M 20.375 0 C 19.125 0 18.066406 -0.335938 17.203125 -1.015625 C 16.335938 -1.691406 15.640625 -2.554688 15.109375 -3.609375 C 14.578125 -4.671875 14.191406 -5.851562 13.953125 -7.15625 C 13.710938 -8.457031 13.59375 -9.6875 13.59375 -10.84375 L 13.59375 -92.515625 L 30.359375 -92.515625 L 30.359375 -12 C 30.359375 -10.070312 30.8125 -8.191406 31.71875 -6.359375 C 32.632812 -4.523438 34.0625 -3.609375 36 -3.609375 L 91.203125 -3.609375 L 91.203125 0 Z M 20.375 0 "/></g></g></g><g fill="#00d69f" fill-opacity="1"><g transform="translate(191.251127, 236.560287)"><g><path d="M 97.28125 -2.609375 C 97.28125 -0.960938 96.988281 0.191406 96.40625 0.859375 C 95.832031 1.535156 95.113281 1.875 94.25 1.875 C 92.894531 1.875 91.398438 1.367188 89.765625 0.359375 C 88.128906 -0.648438 86.875 -1.640625 86 -2.609375 L 18.796875 -71.6875 C 18.410156 -72.082031 18.070312 -72.28125 17.78125 -72.28125 C 17.300781 -72.28125 17.0625 -71.890625 17.0625 -71.109375 L 17.0625 0 L 13.4375 0 L 13.4375 -90.78125 C 13.4375 -92.414062 13.820312 -93.59375 14.59375 -94.3125 C 15.363281 -95.039062 16.328125 -95.40625 17.484375 -95.40625 C 19.703125 -95.40625 21.820312 -94.390625 23.84375 -92.359375 L 91.203125 -23.421875 C 91.878906 -22.742188 92.410156 -22.40625 92.796875 -22.40625 C 93.085938 -22.40625 93.304688 -22.570312 93.453125 -22.90625 C 93.597656 -23.25 93.671875 -23.5625 93.671875 -23.84375 L 93.671875 -92.515625 L 97.28125 -92.515625 Z M 97.28125 -2.609375 "/></g></g></g></svg>