<svg width="279" height="278" viewBox="0 0 279 278" fill="none" xmlns="http://www.w3.org/2000/svg">
<path d="M133.125 277.684C99.2857 276.454 78.3408 266.419 73.0119 248.883L72.3924 246.845L72.3056 212.467C72.2062 173.121 72.2411 172.324 74.3355 166.059C78.1573 154.627 87.1949 147.256 101.329 144.043L104.454 143.332L143.316 143.16C171.16 143.037 182.704 142.898 184.032 142.669C191.814 141.327 196.919 139.318 201.711 135.711C207.437 131.402 212.163 124.026 214.275 116.104C215.861 110.153 215.818 110.803 215.99 89.9018L216.149 70.4707H230.145H244.141L246.858 71.2297C261.419 75.296 271.991 89.0917 276.492 109.901C278.223 117.904 278.241 118.201 278.244 138.618C278.247 158.489 278.238 158.662 276.85 165.18C275.485 171.587 273.699 176.8 271.03 182.166C265.647 192.987 257.71 200.312 247.673 203.719C241.94 205.665 246.739 205.502 190.331 205.664L139.512 205.809V210.429V215.049L173.21 215.185L206.909 215.321L207.045 231.898C207.12 241.016 207.087 249.258 206.972 250.215C206.695 252.528 205.714 255.273 204.31 257.663C202.864 260.125 198.475 264.527 195.495 266.505C186.444 272.511 172.646 276.172 154.459 277.393C148.339 277.803 139.674 277.922 133.125 277.684ZM179.869 256.202C186.364 255.149 191.014 248.792 189.943 242.429C189.059 237.18 185.007 233.12 179.788 232.256C171.821 230.935 164.575 238.251 165.993 246.185C167.024 251.956 171.652 256.018 177.694 256.459C177.919 256.475 178.897 256.36 179.869 256.202ZM35.0672 207.167C27.4233 205.777 19.8958 201.144 14.5765 194.556C4.50123 182.077 -0.584961 161.272 0.0535393 135.15C0.451439 118.872 2.88499 106.789 7.83558 96.5093C14.2169 83.2591 23.7514 75.4014 36.6226 72.7848C39.4419 72.2116 39.5832 72.2101 89.2381 72.23C116.622 72.2409 139.228 72.1728 139.473 72.0786C139.863 71.9291 139.919 71.3234 139.919 67.3164C139.919 64.7914 139.889 62.6962 139.851 62.6603C139.814 62.6244 124.619 62.5326 106.085 62.4564L72.3862 62.3179L72.3162 44.8036C72.2396 25.6208 72.2242 25.8433 73.8665 22.3204C79.5598 10.1075 96.3311 2.68731 123.206 0.49089C125.149 0.33209 130.408 0.130284 134.892 0.0424038C164.645 -0.540706 186.471 4.89987 197.943 15.7596C199.214 16.9627 200.871 18.7585 201.624 19.7502C203.337 22.0053 205.47 26.3105 206.287 29.1627L206.909 31.3368V67.4814C206.909 101.22 206.876 103.798 206.417 106.208C205.825 109.317 204.403 113.687 203.218 116.038C199.114 124.177 191.552 130.041 181.529 132.857C175.02 134.686 177.976 134.566 134.892 134.753C92.105 134.939 94.6903 134.839 88.6919 136.534C77.0412 139.827 68.4821 148.901 65.005 161.647C63.4419 167.377 63.4766 166.842 63.3054 187.873L63.1462 207.439L50.1015 207.484C40.2541 207.518 36.5692 207.44 35.0672 207.167ZM106.299 44.5877C111.244 42.2642 114.223 36.8179 113.327 31.7348C112.502 27.0461 109.282 23.3041 104.913 21.9545C97.9297 19.7977 90.6436 24.2484 89.3552 31.4577C88.3073 37.321 91.6984 43.029 97.4336 45.0558C98.7153 45.5087 99.5395 45.6005 101.737 45.5351C104.13 45.4639 104.674 45.351 106.299 44.5877Z" fill="#FED142"/>
<path d="M35.0672 207.167C27.4233 205.777 19.8958 201.144 14.5765 194.556C4.50123 182.077 -0.584961 161.272 0.0535393 135.15C0.451439 118.872 2.88499 106.789 7.83558 96.5093C14.2169 83.2591 23.7514 75.4014 36.6226 72.7848C39.4419 72.2116 39.5832 72.2101 89.2381 72.23C116.622 72.2409 139.228 72.1728 139.473 72.0786C139.863 71.9291 139.919 71.3234 139.919 67.3164C139.919 64.7914 139.889 62.6962 139.851 62.6603C139.814 62.6244 124.619 62.5326 106.085 62.4564L72.3862 62.3179L72.3162 44.8036C72.2396 25.6208 72.2242 25.8433 73.8665 22.3204C79.5598 10.1075 96.3311 2.68731 123.206 0.49089C125.149 0.33209 130.408 0.130284 134.892 0.0424038C164.645 -0.540706 186.471 4.89987 197.943 15.7596C199.214 16.9627 200.871 18.7585 201.624 19.7502C203.337 22.0053 205.47 26.3105 206.287 29.1627L206.909 31.3368V67.4814C206.909 101.22 206.876 103.798 206.417 106.208C205.825 109.317 204.403 113.687 203.218 116.038C199.114 124.177 191.552 130.041 181.529 132.857C175.02 134.686 177.976 134.566 134.892 134.753C92.105 134.939 94.6903 134.839 88.6919 136.534C77.0412 139.827 68.4821 148.901 65.005 161.647C63.4419 167.377 63.4766 166.842 63.3054 187.873L63.1462 207.439L50.1015 207.484C40.2541 207.518 36.5692 207.44 35.0672 207.167ZM106.299 44.5877C111.244 42.2642 114.223 36.8179 113.327 31.7348C112.502 27.0461 109.282 23.3041 104.913 21.9545C97.9297 19.7977 90.6436 24.2484 89.3552 31.4577C88.3073 37.321 91.6984 43.029 97.4336 45.0558C98.7153 45.5087 99.5395 45.6005 101.737 45.5351C104.13 45.4639 104.674 45.351 106.299 44.5877Z" fill="#3571A3"/>
</svg>
