<svg width="48" height="44" viewBox="0 0 48 44" fill="none" xmlns="http://www.w3.org/2000/svg">
<path d="M47.4691 21.9828C47.4691 18.713 43.5311 15.6143 37.4934 13.6927C38.8867 7.29406 38.2675 2.20331 35.5389 0.573463C34.91 0.191154 34.1746 0.0100606 33.3716 0.0100606V2.25361C33.8166 2.25361 34.1746 2.34416 34.4746 2.51519C35.7905 3.29993 36.3614 6.28798 35.9163 10.1312C35.8098 11.0769 35.6357 12.0729 35.4228 13.0891C33.5264 12.6061 31.4558 12.2339 29.2787 11.9924C27.9725 10.1312 26.6179 8.44098 25.2536 6.96205C28.4079 3.91364 31.3687 2.24355 33.3812 2.24355V0C30.7204 0 27.2372 1.97191 23.7152 5.39257C20.1932 1.99203 16.71 0.0402432 14.0491 0.0402432V2.28379C16.052 2.28379 19.0225 3.94382 22.1768 6.97211C20.8222 8.45104 19.4676 10.1312 18.1807 11.9924C15.994 12.2339 13.9234 12.6061 12.0269 13.0991C11.8044 12.093 11.6399 11.1171 11.5238 10.1815C11.069 6.33828 11.6302 3.35024 12.9364 2.55543C13.2267 2.37434 13.6041 2.29385 14.0491 2.29385V0.0503038C13.2364 0.0503038 12.501 0.231397 11.8624 0.613707C9.14356 2.24355 8.53399 7.32424 9.93697 13.7028C3.91867 15.6344 0 18.7231 0 21.9828C0 25.2525 3.93802 28.3512 9.97567 30.2728C8.58236 36.6715 9.20161 41.7622 11.9302 43.3921C12.5591 43.7744 13.2944 43.9555 14.1072 43.9555C16.768 43.9555 20.2513 41.9836 23.7732 38.5629C27.2952 41.9635 30.7785 43.9152 33.4393 43.9152C34.2521 43.9152 34.9874 43.7341 35.626 43.3518C38.3449 41.722 38.9545 36.6413 37.5515 30.2628C43.5504 28.3412 47.4691 25.2425 47.4691 21.9828V21.9828ZM34.8713 15.2722C34.5133 16.5701 34.0682 17.9082 33.5651 19.2462C33.1684 18.4414 32.7523 17.6365 32.2976 16.8317C31.8525 16.0268 31.3784 15.2421 30.9043 14.4774C32.2782 14.6887 33.6038 14.9503 34.8713 15.2722ZM30.4398 25.987C29.6851 27.3452 28.9111 28.6329 28.108 29.8302C26.6663 29.961 25.2053 30.0314 23.7345 30.0314C22.2735 30.0314 20.8125 29.961 19.3805 29.8402C18.5774 28.643 17.7937 27.3653 17.0389 26.0171C16.3036 24.6992 15.636 23.3611 15.0264 22.013C15.6263 20.6648 16.3036 19.3167 17.0293 17.9987C17.784 16.6405 18.558 15.3527 19.3611 14.1555C20.8028 14.0247 22.2638 13.9543 23.7345 13.9543C25.1956 13.9543 26.6566 14.0247 28.0886 14.1454C28.8917 15.3427 29.6754 16.6204 30.4301 17.9685C31.1655 19.2865 31.8331 20.6246 32.4427 21.9727C31.8331 23.3209 31.1655 24.669 30.4398 25.987ZM33.5651 24.6791C34.0876 26.0272 34.5327 27.3753 34.9003 28.6832C33.6328 29.0052 32.2976 29.2768 30.9139 29.4881C31.388 28.7134 31.8622 27.9186 32.3072 27.1037C32.7523 26.2988 33.1684 25.4839 33.5651 24.6791ZM23.7539 35.4139C22.8541 34.4481 21.9542 33.3716 21.064 32.1944C21.9349 32.2347 22.825 32.2649 23.7249 32.2649C24.6344 32.2649 25.5342 32.2448 26.4147 32.1944C25.5439 33.3716 24.6441 34.4481 23.7539 35.4139ZM16.5552 29.4881C15.1812 29.2768 13.8556 29.0152 12.5881 28.6933C12.9461 27.3955 13.3912 26.0574 13.8943 24.7193C14.291 25.5242 14.7071 26.329 15.1619 27.1339C15.6166 27.9387 16.081 28.7235 16.5552 29.4881ZM23.7055 8.55165C24.6054 9.51748 25.5052 10.594 26.3954 11.7711C25.5246 11.7309 24.6344 11.7007 23.7345 11.7007C22.825 11.7007 21.9252 11.7208 21.0447 11.7711C21.9155 10.594 22.8154 9.51748 23.7055 8.55165ZM16.5455 14.4774C16.0714 15.2521 15.5973 16.0469 15.1522 16.8618C14.7071 17.6667 14.291 18.4716 13.8943 19.2764C13.3718 17.9283 12.9268 16.5801 12.5591 15.2722C13.8266 14.9604 15.1619 14.6887 16.5455 14.4774V14.4774ZM7.78896 27.0735C4.36375 25.5543 2.14801 23.5623 2.14801 21.9828C2.14801 20.4032 4.36375 18.4011 7.78896 16.892C8.62107 16.5198 9.53059 16.1878 10.4691 15.8759C11.0206 17.8478 11.7463 19.9002 12.6462 22.0029C11.756 24.0955 11.04 26.1379 10.4982 28.0997C9.54026 27.7878 8.63075 27.4458 7.78896 27.0735ZM12.9945 41.4504C11.6786 40.6656 11.1077 37.6776 11.5528 33.8344C11.6592 32.8886 11.8334 31.8926 12.0463 30.8765C13.9427 31.3594 16.0133 31.7317 18.1904 31.9731C19.4966 33.8344 20.8512 35.5246 22.2155 37.0035C19.0612 40.0519 16.1004 41.722 14.0879 41.722C13.6524 41.7119 13.2848 41.6214 12.9945 41.4504V41.4504ZM35.9453 33.784C36.4001 37.6273 35.8389 40.6153 34.5326 41.4101C34.2424 41.5912 33.865 41.6717 33.4199 41.6717C31.4171 41.6717 28.4466 40.0117 25.2923 36.9834C26.6469 35.5044 28.0015 33.8243 29.2884 31.9631C31.4751 31.7216 33.5457 31.3493 35.4422 30.8564C35.6647 31.8725 35.8389 32.8484 35.9453 33.784V33.784ZM39.6705 27.0735C38.8383 27.4458 37.9288 27.7778 36.9903 28.0897C36.4388 26.1177 35.7131 24.0654 34.8132 21.9627C35.7034 19.87 36.4194 17.8277 36.9613 15.8658C37.9192 16.1777 38.8287 16.5198 39.6801 16.892C43.1053 18.4112 45.3211 20.4032 45.3211 21.9828C45.3114 23.5623 43.0957 25.5644 39.6705 27.0735V27.0735Z" fill="#61DAFB"/>
<path d="M23.7248 26.5806C26.1669 26.5806 28.1466 24.5221 28.1466 21.9828C28.1466 19.4435 26.1669 17.385 23.7248 17.385C21.2827 17.385 19.303 19.4435 19.303 21.9828C19.303 24.5221 21.2827 26.5806 23.7248 26.5806Z" fill="#61DAFB"/>
</svg>
